<?xml version="1.0" encoding="utf-8"?>
<!-- Generator: Adobe Illustrator 21.1.0, SVG Export Plug-In . SVG Version: 6.00 Build 0)  -->
<svg version="1.1" id="Слой_1" xmlns="http://www.w3.org/2000/svg" xmlns:xlink="http://www.w3.org/1999/xlink" x="0px" y="0px"
	 viewBox="0 0 44 44" style="enable-background:new 0 0 44 44;" xml:space="preserve">
<style type="text/css">
	.st0{fill:#2ABBFF;}
	.st1{fill:#FFFFFF;}
</style>
<path id="Shape_23_copy_2" class="st0" d="M22,0C9.8,0,0,9.9,0,22c0,12.2,9.8,22,22,22s22-9.9,22-22l0,0C44,9.9,34.2,0,22,0L22,0z"
	/>
<path id="Shape_23_copy" class="st1" d="M29.8,23.4l-11,6.4C18,30.3,17,30,16.6,29.2c-0.1-0.3-0.2-0.5-0.2-0.8V15.6
	c0-0.9,0.7-1.7,1.7-1.7c0.3,0,0.6,0.1,0.8,0.2l11,6.4c0.8,0.5,1.1,1.5,0.6,2.3C30.3,23.1,30.1,23.3,29.8,23.4z"/>
</svg>
