<svg xmlns="http://www.w3.org/2000/svg" width="17" height="17" viewBox="0 0 17 17">
  <metadata><?xpacket begin="﻿" id="W5M0MpCehiHzreSzNTczkc9d"?>
<x:xmpmeta xmlns:x="adobe:ns:meta/" x:xmptk="Adobe XMP Core 5.6-c138 79.159824, 2016/09/14-01:09:01        ">
   <rdf:RDF xmlns:rdf="http://www.w3.org/1999/02/22-rdf-syntax-ns#">
      <rdf:Description rdf:about=""/>
   </rdf:RDF>
</x:xmpmeta>
                                                                                                    
                                                                                                    
                                                                                                    
                                                                                                    
                                                                                                    
                                                                                                    
                                                                                                    
                                                                                                    
                                                                                                    
                                                                                                    
                                                                                                    
                                                                                                    
                                                                                                    
                                                                                                    
                                                                                                    
                                                                                                    
                                                                                                    
                                                                                                    
                                                                                                    
                                                                                                    
                           
<?xpacket end="w"?></metadata>
<defs>
    <style>
      .cls-1 {
        fill: #ccc;
        fill-rule: evenodd;
      }
    </style>
  </defs>
  <path class="cls-1" d="M454.487,45.075l-0.066-.045-0.113-.752,0.046-.063c1.329-1.742,2-2.134,1.881-2.324l-0.938-1.56a0.353,0.353,0,0,0-.2-0.143,15.09,15.09,0,0,1-2.712.76l-0.073.012L451.7,40.5l-0.02-.075c-0.3-2.186-.1-2.934-0.313-2.99l-1.745-.446c-0.218-.056-0.385.7-1.6,2.5l-0.046.063-0.755.111-0.058-.045c-1.007-.776-1.9-1.9-2.1-1.947a0.321,0.321,0,0,0-.237.031l-1.545.92c-0.2.118,0.223,0.779,0.641,2.926l0.022,0.079-0.446.608h-0.074c-2.183.274-2.931,0.073-2.99,0.3L440,44.293c-0.055.223,0.7,0.4,2.514,1.637l0.065,0.045,0.113,0.752-0.045.063c-1.329,1.747-2,2.135-1.882,2.324l0.934,1.56a0.352,0.352,0,0,0,.2.143,15.1,15.1,0,0,1,2.713-.761l0.073-.016L445.3,50.5v0.075c0.3,2.186.1,2.934,0.31,2.986l1.746,0.446c0.218,0.056.387-.7,1.6-2.5l0.068-.073,0.755-.107,0.058,0.045c1.007,0.776,1.9,1.9,2.1,1.946a0.346,0.346,0,0,0,.238-0.031l1.551-.923c0.19-.114-0.229-0.769-0.659-2.917V49.363l0.446-.608h0.073c2.182-.278,2.93-0.067,2.987-0.29l0.436-1.756C457.055,46.482,456.3,46.309,454.487,45.075ZM447.549,49.3a3.926,3.926,0,0,1-2.7-4.8,3.826,3.826,0,0,1,4.7-2.762,3.925,3.925,0,0,1,2.721,4.73A3.874,3.874,0,0,1,447.549,49.3Z" transform="translate(-440 -37)"/>
</svg>
