<?xml version="1.0" encoding="utf-8"?>
<!-- Generator: Adobe Illustrator 21.1.0, SVG Export Plug-In . SVG Version: 6.00 Build 0)  -->
<svg version="1.1" id="Слой_1" xmlns="http://www.w3.org/2000/svg" xmlns:xlink="http://www.w3.org/1999/xlink" x="0px" y="0px"
	 viewBox="0 0 25 25" style="enable-background:new 0 0 25 25;" xml:space="preserve">
<style type="text/css">
	.st0{fill:#FFFFFF;}
</style>
<path class="st0" d="M20.1,7.8c-0.5-0.4-1.2-0.4-1.7,0c-0.4,0.3-0.5,1-0.1,1.4c0,0.1,0.1,0.1,0.1,0.1c1.9,1.6,2.2,4.5,0.6,6.5
	c-0.2,0.2-0.4,0.4-0.6,0.6c-0.4,0.3-0.5,1-0.1,1.4c0,0.1,0.1,0.1,0.1,0.1c0.2,0.3,0.6,0.4,1,0.4c0.4,0.1,0.7-0.1,1-0.4
	C23.2,15.5,23.2,10.9,20.1,7.8z M14.9,3c0,0-7.4,6.1-8,6.1H3.7c-0.7,0-1.2,0.5-1.2,1.2c0,0,0,0,0,0v4.2c0,0.8,0.6,1.4,1.4,1.4h2.6
	c0.8,0,8.5,6.4,8.5,6.4c0.3,0.4,0.9,0.4,1.2,0.1c0.2-0.2,0.3-0.6,0.3-0.9V3.5C16.4,2.3,15.6,2.3,14.9,3L14.9,3z"/>
</svg>
