<svg id="logo" xmlns="http://www.w3.org/2000/svg" width="146" height="50" viewBox="0 0 146 50">
  <metadata><?xpacket begin="﻿" id="W5M0MpCehiHzreSzNTczkc9d"?>
<x:xmpmeta xmlns:x="adobe:ns:meta/" x:xmptk="Adobe XMP Core 5.6-c138 79.159824, 2016/09/14-01:09:01        ">
   <rdf:RDF xmlns:rdf="http://www.w3.org/1999/02/22-rdf-syntax-ns#">
      <rdf:Description rdf:about=""/>
   </rdf:RDF>
</x:xmpmeta>
                                                                                                    
                                                                                                    
                                                                                                    
                                                                                                    
                                                                                                    
                                                                                                    
                                                                                                    
                                                                                                    
                                                                                                    
                                                                                                    
                                                                                                    
                                                                                                    
                                                                                                    
                                                                                                    
                                                                                                    
                                                                                                    
                                                                                                    
                                                                                                    
                                                                                                    
                                                                                                    
                           
<?xpacket end="w"?></metadata>
<defs>
    <style>
      .cls-1 {
        fill: #2abbff;
        fill-rule: evenodd;
        opacity: 0.5;
      }

      .cls-2, .cls-3 {
        font-size: 12px;
        fill: #ccc;
      }

      .cls-2 {
        font-family: "Myriad Pro";
      }

      .cls-3 {
        font-family: Arial;
        font-weight: 700;
      }
    </style>
  </defs>
  <path class="cls-1" d="M67.42,34.541l9.784,0.63L66.1,17.347l-0.4,1.144a0.665,0.665,0,0,1-1.257-.437l0.746-2.143L52.01,12.983,61.558,26.34l0.26-.747a0.665,0.665,0,1,1,1.257.437l-0.569,1.635Zm-1.161.664-4.468-6.251a0.665,0.665,0,0,1-.847-0.847l0.079-.228L50.37,12.977l-16.4,19.015L49.38,40.836l0.5-.241a0.666,0.666,0,0,1,.818,1l6.718,3.856,4.156-4.818a0.665,0.665,0,0,1,.864-1ZM56.843,46.654l-7.52-4.316-1.266.6a0.665,0.665,0,1,1-.574-1.2l0.438-.209-13.69-7.858L38.36,46.1l1.921-.918a0.665,0.665,0,1,1,.574,1.2l-1.5.717,19.574,8.068Zm3.5,8.681,10.736-6.5-0.888-.766a0.665,0.665,0,0,1,.869-1.008l1.024,0.883,4.81-11.457-9.451-.608L63.451,40.5l1.56,1.345a0.665,0.665,0,0,1-.869,1.008l-1.559-1.345L58.2,46.589ZM59.29,36.908l1.691,1.458a0.665,0.665,0,0,1-.869,1.008l-1.635-1.41-0.815.39a0.665,0.665,0,0,1-.574-1.2l0.85-.406,0.383-1.1a0.665,0.665,0,1,1,1.256.437ZM72.678,49.414a0.7,0.7,0,0,1-.285.172L60.331,56.9a0.666,0.666,0,0,1-.6.046L37.8,47.9l-0.378-.405L32.372,32.3a0.665,0.665,0,0,1,.127-0.644l17.382-20.15a0.665,0.665,0,0,1,.648-0.215l15.235,3.385,0.42,0.3L78.656,34.986a0.665,0.665,0,0,1,.049.609L73.064,49.032l-0.269.311Zm-6.73-5.005a0.665,0.665,0,0,1,.869-1.008l2.425,2.092a0.665,0.665,0,0,1-.869,1.008Zm-22.693.829a0.665,0.665,0,1,1-.574-1.2l2.4-1.147a0.665,0.665,0,1,1,.574,1.2Zm9.6-4.59a0.665,0.665,0,1,1-.574-1.2l2.4-1.148a0.665,0.665,0,0,1,.574,1.2Zm7.592-7.078a0.665,0.665,0,0,1-1.257-.437l0.874-2.513a0.665,0.665,0,0,1,1.257.437Zm3.5-10.054a0.665,0.665,0,1,1-1.257-.437l0.875-2.513A0.665,0.665,0,1,1,64.824,21Z" transform="translate(-25.172 -10.141)"/>
  <text id="FireFly" class="cls-2" transform="translate(35.561 35.637) scale(2.96)">FireFly</text>
  <text id="Харьков" class="cls-3" transform="translate(80.328 45.906) scale(0.606)">Харьков</text>
</svg>
