<svg xmlns="http://www.w3.org/2000/svg" width="9" height="21" viewBox="0 0 9 21">
  <metadata><?xpacket begin="﻿" id="W5M0MpCehiHzreSzNTczkc9d"?>
<x:xmpmeta xmlns:x="adobe:ns:meta/" x:xmptk="Adobe XMP Core 5.6-c138 79.159824, 2016/09/14-01:09:01        ">
   <rdf:RDF xmlns:rdf="http://www.w3.org/1999/02/22-rdf-syntax-ns#">
      <rdf:Description rdf:about=""/>
   </rdf:RDF>
</x:xmpmeta>
                                                                                                    
                                                                                                    
                                                                                                    
                                                                                                    
                                                                                                    
                                                                                                    
                                                                                                    
                                                                                                    
                                                                                                    
                                                                                                    
                                                                                                    
                                                                                                    
                                                                                                    
                                                                                                    
                                                                                                    
                                                                                                    
                                                                                                    
                                                                                                    
                                                                                                    
                                                                                                    
                           
<?xpacket end="w"?></metadata>
<defs>
    <style>
      .cls-1 {
        fill: #fff;
        fill-rule: evenodd;
        opacity: 0.2;
      }
    </style>
  </defs>
  <path id="drag" class="cls-1" d="M256.5,522a1.5,1.5,0,1,1-1.5,1.5A1.5,1.5,0,0,1,256.5,522Zm0,6a1.5,1.5,0,1,1-1.5,1.5A1.5,1.5,0,0,1,256.5,528Zm0,6a1.5,1.5,0,1,1-1.5,1.5A1.5,1.5,0,0,1,256.5,534Zm0,6a1.5,1.5,0,1,1-1.5,1.5A1.5,1.5,0,0,1,256.5,540Zm6-18a1.5,1.5,0,1,1-1.5,1.5A1.5,1.5,0,0,1,262.5,522Zm0,6a1.5,1.5,0,1,1-1.5,1.5A1.5,1.5,0,0,1,262.5,528Zm0,6a1.5,1.5,0,1,1-1.5,1.5A1.5,1.5,0,0,1,262.5,534Zm0,6a1.5,1.5,0,1,1-1.5,1.5A1.5,1.5,0,0,1,262.5,540Z" transform="translate(-255 -522)"/>
</svg>
