<?xml version="1.0" encoding="utf-8"?>
<!-- Generator: Adobe Illustrator 21.1.0, SVG Export Plug-In . SVG Version: 6.00 Build 0)  -->
<svg version="1.1" id="Слой_1" xmlns="http://www.w3.org/2000/svg" xmlns:xlink="http://www.w3.org/1999/xlink" x="0px" y="0px"
	 viewBox="0 0 25 25" style="enable-background:new 0 0 25 25;" xml:space="preserve">
<style type="text/css">
	.st0{fill:#FFFFFF;}
</style>
<path class="st0" d="M13,4.1h-0.1V2.9c0-0.5-0.5-0.9-1.1-0.9c-0.2,0-0.4,0.1-0.6,0.2L7.1,5.1C6.7,5.4,6.6,5.9,6.9,6.3c0,0,0,0,0,0
	C7,6.4,7,6.5,7.1,6.5l4.1,2.9c0.5,0.3,1.1,0.3,1.5-0.1c0.1-0.2,0.2-0.4,0.2-0.6l0-1.6h0.2c3.6,0,6.5,2.7,6.5,5.9
	c-0.1,3.2-3,5.8-6.7,5.8c-3.4,0-6.1-2.3-6.4-5.3c-0.1-0.5-0.5-0.9-1.1-0.9l-1.3,0c-0.6,0-1,0.4-1,0.9c0,0,0,0,0,0v0.1
	c0.3,4.9,5.1,8.7,10.6,8.4c5.5-0.3,9.7-4.5,9.4-9.5C22.7,7.8,18.3,4.1,13,4.1z"/>
</svg>
