<svg xmlns="http://www.w3.org/2000/svg" width="25" height="25" viewBox="0 0 25 25">
  <metadata><?xpacket begin="﻿" id="W5M0MpCehiHzreSzNTczkc9d"?>
<x:xmpmeta xmlns:x="adobe:ns:meta/" x:xmptk="Adobe XMP Core 5.6-c138 79.159824, 2016/09/14-01:09:01        ">
   <rdf:RDF xmlns:rdf="http://www.w3.org/1999/02/22-rdf-syntax-ns#">
      <rdf:Description rdf:about=""/>
   </rdf:RDF>
</x:xmpmeta>
                                                                                                    
                                                                                                    
                                                                                                    
                                                                                                    
                                                                                                    
                                                                                                    
                                                                                                    
                                                                                                    
                                                                                                    
                                                                                                    
                                                                                                    
                                                                                                    
                                                                                                    
                                                                                                    
                                                                                                    
                                                                                                    
                                                                                                    
                                                                                                    
                                                                                                    
                                                                                                    
                           
<?xpacket end="w"?></metadata>
<defs>
    <style>
      .cls-1 {
        fill: #fff;
        fill-rule: evenodd;
      }
    </style>
  </defs>
  <path class="cls-1" d="M1088.5,623.744a1.166,1.166,0,0,0-1.56,0,0.9,0.9,0,0,0,0,1.4,4.134,4.134,0,0,1,0,6.385,0.9,0.9,0,0,0,0,1.4,1.228,1.228,0,0,0,.89.4,0.92,0.92,0,0,0,.89-0.4C1091.4,630.728,1091.4,626.538,1088.5,623.744Zm-4.9-4.324s-6.89,5.5-7.52,5.5h-2.93a1.12,1.12,0,0,0-1.15,1.1V629.8a1.249,1.249,0,0,0,1.27,1.221h2.42c0.77,0,7.91,5.739,7.91,5.739a0.823,0.823,0,0,0,1.41-.733V619.908C1085.01,618.81,1084.24,618.81,1083.6,619.42Z" transform="translate(-1068.86 -615.515)"/>
</svg>
