<?xml version="1.0" encoding="utf-8"?>
<!-- Generator: Adobe Illustrator 21.1.0, SVG Export Plug-In . SVG Version: 6.00 Build 0)  -->
<svg version="1.1" id="Слой_1" xmlns="http://www.w3.org/2000/svg" xmlns:xlink="http://www.w3.org/1999/xlink" x="0px" y="0px"
	 viewBox="0 0 25 25" style="enable-background:new 0 0 25 25;" xml:space="preserve">
<style type="text/css">
	.st0{fill:#FFFFFF;}
</style>
<path id="Rounded_Rectangle_564" class="st0" d="M5.5,14C6.3,14,7,14.7,7,15.5v4C7,20.3,6.3,21,5.5,21S4,20.3,4,19.5v-4
	C4,14.7,4.7,14,5.5,14z M5.5,18h4c0.8,0,1.5,0.7,1.5,1.5S10.3,21,9.5,21h-4C4.7,21,4,20.3,4,19.5S4.7,18,5.5,18z M5.5,4
	C6.3,4,7,4.7,7,5.5v4C7,10.3,6.3,11,5.5,11S4,10.3,4,9.5v-4C4,4.7,4.7,4,5.5,4z M5.5,4h4C10.3,4,11,4.7,11,5.5S10.3,7,9.5,7h-4
	C4.7,7,4,6.3,4,5.5S4.7,4,5.5,4z M19.5,14c0.8,0,1.5,0.7,1.5,1.5v4c0,0.8-0.7,1.5-1.5,1.5S18,20.3,18,19.5v-4
	C18,14.7,18.7,14,19.5,14z M15.5,18h4c0.8,0,1.5,0.7,1.5,1.5S20.3,21,19.5,21h-4c-0.8,0-1.5-0.7-1.5-1.5S14.7,18,15.5,18z M19.5,4
	C20.3,4,21,4.7,21,5.5v4c0,0.8-0.7,1.5-1.5,1.5S18,10.3,18,9.5v-4C18,4.7,18.7,4,19.5,4z M15.5,4h4C20.3,4,21,4.7,21,5.5
	S20.3,7,19.5,7h-4C14.7,7,14,6.3,14,5.5S14.7,4,15.5,4z"/>
</svg>
