<svg xmlns="http://www.w3.org/2000/svg" width="25" height="25" viewBox="0 0 25 25">
  <metadata><?xpacket begin="﻿" id="W5M0MpCehiHzreSzNTczkc9d"?>
<x:xmpmeta xmlns:x="adobe:ns:meta/" x:xmptk="Adobe XMP Core 5.6-c138 79.159824, 2016/09/14-01:09:01        ">
   <rdf:RDF xmlns:rdf="http://www.w3.org/1999/02/22-rdf-syntax-ns#">
      <rdf:Description rdf:about=""/>
   </rdf:RDF>
</x:xmpmeta>
                                                                                                    
                                                                                                    
                                                                                                    
                                                                                                    
                                                                                                    
                                                                                                    
                                                                                                    
                                                                                                    
                                                                                                    
                                                                                                    
                                                                                                    
                                                                                                    
                                                                                                    
                                                                                                    
                                                                                                    
                                                                                                    
                                                                                                    
                                                                                                    
                                                                                                    
                                                                                                    
                           
<?xpacket end="w"?></metadata>
<defs>
    <style>
      .cls-1 {
        fill: #fff;
        fill-rule: evenodd;
      }
    </style>
  </defs>
  <path id="Rounded_Rectangle_564" data-name="Rounded Rectangle 564" class="cls-1" d="M1376.5,630a1.5,1.5,0,0,1,1.5,1.5v4a1.5,1.5,0,0,1-3,0v-4A1.5,1.5,0,0,1,1376.5,630Zm0,4h4a1.5,1.5,0,0,1,0,3h-4A1.5,1.5,0,0,1,1376.5,634Zm0-14a1.5,1.5,0,0,1,1.5,1.5v4a1.5,1.5,0,0,1-3,0v-4A1.5,1.5,0,0,1,1376.5,620Zm0,0h4a1.5,1.5,0,0,1,0,3h-4A1.5,1.5,0,0,1,1376.5,620Zm14,10a1.5,1.5,0,0,1,1.5,1.5v4a1.5,1.5,0,0,1-3,0v-4A1.5,1.5,0,0,1,1390.5,630Zm-4,4h4a1.5,1.5,0,0,1,0,3h-4A1.5,1.5,0,0,1,1386.5,634Zm4-14a1.5,1.5,0,0,1,1.5,1.5v4a1.5,1.5,0,0,1-3,0v-4A1.5,1.5,0,0,1,1390.5,620Zm-4,0h4a1.5,1.5,0,0,1,0,3h-4A1.5,1.5,0,0,1,1386.5,620Z" transform="translate(-1371 -616)"/>
</svg>
