<?xml version="1.0" encoding="utf-8"?>
<!-- Generator: Adobe Illustrator 21.1.0, SVG Export Plug-In . SVG Version: 6.00 Build 0)  -->
<svg version="1.1" id="Слой_1" xmlns="http://www.w3.org/2000/svg" xmlns:xlink="http://www.w3.org/1999/xlink" x="0px" y="0px"
	 viewBox="0 0 25 25" style="enable-background:new 0 0 25 25;" xml:space="preserve">
<style type="text/css">
	.st0{fill:#FFFFFF;}
</style>
<path id="Shape_562_copy" class="st0" d="M20.4,11.6h-1.4v-4c0-2.8-2.9-5.2-6.4-5.2C9,2.5,6.1,4.8,6.1,7.7v4H4.7
	c-1.2,0-2.1,0.8-2.1,1.7l0,0v7.4c0,0.9,1,1.7,2.1,1.7h15.7c1.2,0,2.1-0.8,2.1-1.7v-7.4C22.5,12.4,21.5,11.6,20.4,11.6z M9.7,7.7
	c0-1.3,1.3-2.3,2.8-2.3c1.6,0,2.9,1,2.9,2.3c0,0,0,0,0,0v4H9.7V7.7z M18.9,19.6H6.1v-5.2h12.9V19.6z"/>
</svg>
