<?xml version="1.0" encoding="utf-8"?>
<!-- Generator: Adobe Illustrator 21.1.0, SVG Export Plug-In . SVG Version: 6.00 Build 0)  -->
<svg version="1.1" id="Слой_1" xmlns="http://www.w3.org/2000/svg" xmlns:xlink="http://www.w3.org/1999/xlink" x="0px" y="0px"
	 viewBox="0 0 25 25" style="enable-background:new 0 0 25 25;" xml:space="preserve">
<style type="text/css">
	.st0{fill:#FFFFFF;}
</style>
<path id="Rounded_Rectangle_564" class="st0" d="M4.3,14.3C5.2,14.3,6,15.1,6,16v4.7c0,0.9-0.8,1.8-1.8,1.8s-1.8-0.8-1.8-1.8V16
	C2.5,15.1,3.3,14.3,4.3,14.3z M4.3,19H9c0.9,0,1.8,0.8,1.8,1.8S9.9,22.5,9,22.5H4.3c-0.9,0-1.8-0.8-1.8-1.8S3.3,19,4.3,19z M4.3,2.5
	C5.2,2.5,6,3.3,6,4.3V9c0,0.9-0.8,1.8-1.8,1.8S2.5,9.9,2.5,9V4.3C2.5,3.3,3.3,2.5,4.3,2.5z M4.3,2.5H9c0.9,0,1.8,0.8,1.8,1.8
	S9.9,6,9,6H4.3C3.3,6,2.5,5.2,2.5,4.3S3.3,2.5,4.3,2.5z M20.7,14.3c0.9,0,1.8,0.8,1.8,1.8v4.7c0,0.9-0.8,1.8-1.8,1.8
	S19,21.7,19,20.7V16C19,15.1,19.8,14.3,20.7,14.3z M16,19h4.7c0.9,0,1.8,0.8,1.8,1.8s-0.8,1.8-1.8,1.8H16c-0.9,0-1.8-0.8-1.8-1.8
	S15.1,19,16,19z M20.7,2.5c0.9,0,1.8,0.8,1.8,1.8V9c0,0.9-0.8,1.8-1.8,1.8S19,9.9,19,9V4.3C19,3.3,19.8,2.5,20.7,2.5z M16,2.5h4.7
	c0.9,0,1.8,0.8,1.8,1.8S21.7,6,20.7,6H16c-0.9,0-1.8-0.8-1.8-1.8S15.1,2.5,16,2.5z"/>
</svg>
