<svg xmlns="http://www.w3.org/2000/svg" width="25" height="25" viewBox="0 0 25 25">
  <metadata><?xpacket begin="﻿" id="W5M0MpCehiHzreSzNTczkc9d"?>
<x:xmpmeta xmlns:x="adobe:ns:meta/" x:xmptk="Adobe XMP Core 5.6-c138 79.159824, 2016/09/14-01:09:01        ">
   <rdf:RDF xmlns:rdf="http://www.w3.org/1999/02/22-rdf-syntax-ns#">
      <rdf:Description rdf:about=""/>
   </rdf:RDF>
</x:xmpmeta>
                                                                                                    
                                                                                                    
                                                                                                    
                                                                                                    
                                                                                                    
                                                                                                    
                                                                                                    
                                                                                                    
                                                                                                    
                                                                                                    
                                                                                                    
                                                                                                    
                                                                                                    
                                                                                                    
                                                                                                    
                                                                                                    
                                                                                                    
                                                                                                    
                                                                                                    
                                                                                                    
                           
<?xpacket end="w"?></metadata>
<defs>
    <style>
      .cls-1 {
        fill: #fff;
        fill-rule: evenodd;
      }
    </style>
  </defs>
  <path class="cls-1" d="M1333.49,619.239h-0.12V617.97a0.988,0.988,0,0,0-1.6-.757l-3.87,3.048a0.964,0.964,0,0,0-.15,1.364,0.675,0.675,0,0,0,.15.152l3.87,3.051a1.027,1.027,0,0,0,1.41-.151,0.978,0.978,0,0,0,.22-0.611l0.01-1.68h0.17a6.238,6.238,0,1,1-6.3,6.814,1.049,1.049,0,0,0-1.05-.944l-1.25.025a0.973,0.973,0,0,0-.98.968v0.075A9.517,9.517,0,1,0,1333.49,619.239Z" transform="translate(-1321 -615)"/>
</svg>
