<svg xmlns="http://www.w3.org/2000/svg" width="25" height="16" viewBox="0 0 25 16">
  <metadata><?xpacket begin="﻿" id="W5M0MpCehiHzreSzNTczkc9d"?>
<x:xmpmeta xmlns:x="adobe:ns:meta/" x:xmptk="Adobe XMP Core 5.6-c138 79.159824, 2016/09/14-01:09:01        ">
   <rdf:RDF xmlns:rdf="http://www.w3.org/1999/02/22-rdf-syntax-ns#">
      <rdf:Description rdf:about=""/>
   </rdf:RDF>
</x:xmpmeta>
                                                                                                    
                                                                                                    
                                                                                                    
                                                                                                    
                                                                                                    
                                                                                                    
                                                                                                    
                                                                                                    
                                                                                                    
                                                                                                    
                                                                                                    
                                                                                                    
                                                                                                    
                                                                                                    
                                                                                                    
                                                                                                    
                                                                                                    
                                                                                                    
                                                                                                    
                                                                                                    
                           
<?xpacket end="w"?></metadata>
<defs>
    <style>
      .cls-1 {
        fill: #ccc;
        fill-rule: evenodd;
      }
    </style>
  </defs>
  <path class="cls-1" d="M725.255,41.186a0.236,0.236,0,0,0,.265-0.053l1.516-1.491a0.25,0.25,0,0,0-.064-0.4A12.637,12.637,0,0,0,721.5,38,12.436,12.436,0,0,0,709,49.79a0.511,0.511,0,0,0,.512.518h1.5a0.494,0.494,0,0,0,.492-0.474,9.948,9.948,0,0,1,10-9.374A10.08,10.08,0,0,1,725.255,41.186Zm5.92,1.341,1.215-1.2L730.8,39.763a0.253,0.253,0,0,0-.355,0l-7.337,7.224a3.677,3.677,0,0,0-2.623-.228,3.767,3.767,0,0,0-2.692,2.953,3.728,3.728,0,0,0,4.311,4.241,3.785,3.785,0,0,0,3-2.648,3.513,3.513,0,0,0-.231-2.581l4.512-4.44a9.7,9.7,0,0,1,2.107,5.549,0.494,0.494,0,0,0,.492.474h1.5A0.509,0.509,0,0,0,734,49.795,12.144,12.144,0,0,0,731.175,42.527ZM721.5,51.538a1.23,1.23,0,1,1,1.25-1.23A1.242,1.242,0,0,1,721.5,51.538Z" transform="translate(-709 -38)"/>
</svg>
